<svg width="20" height="19" viewBox="0 0 20 19" fill="none" xmlns="http://www.w3.org/2000/svg">
<path d="M15 6.66668H15.8333C16.7173 6.66668 17.5652 7.01787 18.1903 7.64299C18.8154 8.26811 19.1666 9.11595 19.1666 10C19.1666 10.8841 18.8154 11.7319 18.1903 12.357C17.5652 12.9822 16.7173 13.3333 15.8333 13.3333H15M15 6.66668H1.66663V14.1667C1.66663 15.0507 2.01782 15.8986 2.64294 16.5237C3.26806 17.1488 4.1159 17.5 4.99996 17.5H11.6666C12.5507 17.5 13.3985 17.1488 14.0236 16.5237C14.6488 15.8986 15 15.0507 15 14.1667V6.66668ZM4.99996 0.833344V3.33334M8.33329 0.833344V3.33334M11.6666 0.833344V3.33334" stroke="#1E1E1E" stroke-width="2" stroke-linecap="round" stroke-linejoin="round"/>
</svg>
