<svg width="32" height="52" viewBox="0 0 32 52" fill="none" xmlns="http://www.w3.org/2000/svg">
<rect width="32" height="52" rx="7" fill="white" fill-opacity="0.95"/>
<path d="M18.0183 36.5C17.8132 36.8536 17.5188 37.1471 17.1646 37.3511C16.8104 37.5551 16.4088 37.6625 16 37.6625C15.5912 37.6625 15.1896 37.5551 14.8354 37.3511C14.4812 37.1471 14.1868 36.8536 13.9817 36.5M23 21.3333C23 19.4768 22.2625 17.6963 20.9497 16.3836C19.637 15.0708 17.8565 14.3333 16 14.3333C14.1435 14.3333 12.363 15.0708 11.0503 16.3836C9.7375 17.6963 9 19.4768 9 21.3333C9 29.5 5.5 31.8333 5.5 31.8333H26.5C26.5 31.8333 23 29.5 23 21.3333Z" stroke="#1E1E1E" stroke-width="4" stroke-linecap="round" stroke-linejoin="round"/>
<path d="M28.5 13C28.5 15.7614 26.2614 18 23.5 18C20.7386 18 18.5 15.7614 18.5 13C18.5 10.2386 20.7386 8 23.5 8C26.2614 8 28.5 10.2386 28.5 13Z" fill="#EB1212"/>
</svg>
