<svg width="14" height="14" viewBox="0 0 14 14" fill="none" xmlns="http://www.w3.org/2000/svg">
<path d="M7.00004 7.00001C6.08337 7.00001 5.29865 6.67362 4.64587 6.02084C3.9931 5.36807 3.66671 4.58334 3.66671 3.66668C3.66671 2.75001 3.9931 1.96529 4.64587 1.31251C5.29865 0.659732 6.08337 0.333344 7.00004 0.333344C7.91671 0.333344 8.70143 0.659732 9.35421 1.31251C10.007 1.96529 10.3334 2.75001 10.3334 3.66668C10.3334 4.58334 10.007 5.36807 9.35421 6.02084C8.70143 6.67362 7.91671 7.00001 7.00004 7.00001ZM0.333374 13.6667V11.3333C0.333374 10.8611 0.454902 10.4271 0.697957 10.0313C0.941013 9.63543 1.26393 9.33334 1.66671 9.12501C2.52782 8.69445 3.40282 8.37154 4.29171 8.15626C5.1806 7.94098 6.08337 7.83334 7.00004 7.83334C7.91671 7.83334 8.81948 7.94098 9.70837 8.15626C10.5973 8.37154 11.4723 8.69445 12.3334 9.12501C12.7362 9.33334 13.0591 9.63543 13.3021 10.0313C13.5452 10.4271 13.6667 10.8611 13.6667 11.3333V13.6667H0.333374ZM2.00004 12H12V11.3333C12 11.1806 11.9618 11.0417 11.8855 10.9167C11.8091 10.7917 11.7084 10.6945 11.5834 10.625C10.8334 10.25 10.0764 9.96876 9.31254 9.78126C8.54865 9.59376 7.77782 9.50001 7.00004 9.50001C6.22226 9.50001 5.45143 9.59376 4.68754 9.78126C3.92365 9.96876 3.16671 10.25 2.41671 10.625C2.29171 10.6945 2.19101 10.7917 2.11462 10.9167C2.03824 11.0417 2.00004 11.1806 2.00004 11.3333V12ZM7.00004 5.33334C7.45837 5.33334 7.85074 5.17015 8.17712 4.84376C8.50351 4.51737 8.66671 4.12501 8.66671 3.66668C8.66671 3.20834 8.50351 2.81598 8.17712 2.48959C7.85074 2.1632 7.45837 2.00001 7.00004 2.00001C6.54171 2.00001 6.14935 2.1632 5.82296 2.48959C5.49657 2.81598 5.33337 3.20834 5.33337 3.66668C5.33337 4.12501 5.49657 4.51737 5.82296 4.84376C6.14935 5.17015 6.54171 5.33334 7.00004 5.33334Z" fill="#1D1B20"/>
</svg>
