<svg width="16" height="20" viewBox="0 0 16 20" fill="none" xmlns="http://www.w3.org/2000/svg">
<path d="M8.00004 5H8.00837M3.00004 1.66667H13C13.9205 1.66667 14.6667 2.41286 14.6667 3.33334V16.6667C14.6667 17.5871 13.9205 18.3333 13 18.3333H3.00004C2.07957 18.3333 1.33337 17.5871 1.33337 16.6667V3.33334C1.33337 2.41286 2.07957 1.66667 3.00004 1.66667ZM11.3334 11.6667C11.3334 13.5076 9.84099 15 8.00004 15C6.15909 15 4.66671 13.5076 4.66671 11.6667C4.66671 9.82572 6.15909 8.33334 8.00004 8.33334C9.84099 8.33334 11.3334 9.82572 11.3334 11.6667Z" stroke="#1E1E1E" stroke-width="2" stroke-linecap="round" stroke-linejoin="round"/>
</svg>
